<svg width="914" height="914" viewBox="0 0 914 914" fill="none" xmlns="http://www.w3.org/2000/svg">
<path fill-rule="evenodd" clip-rule="evenodd" d="M3.62701 10.881H25.3889L14.508 32.6429L3.62701 10.881ZM36.2699 76.1667H58.0318L47.1508 97.9286L36.2699 76.1667Z" fill="#694137"/>
<path fill-rule="evenodd" clip-rule="evenodd" d="M68.9127 10.881H90.6746L79.7937 32.6429L68.9127 10.881ZM101.556 76.1667H123.317L112.437 97.9286L101.556 76.1667Z" fill="#694137"/>
<path fill-rule="evenodd" clip-rule="evenodd" d="M134.198 10.881H155.96L145.079 32.6429L134.198 10.881ZM166.841 76.1667H188.603L177.722 97.9286L166.841 76.1667Z" fill="#694137"/>
<path fill-rule="evenodd" clip-rule="evenodd" d="M199.484 10.881H221.246L210.365 32.6429L199.484 10.881ZM232.127 76.1667H253.889L243.008 97.9286L232.127 76.1667Z" fill="#694137"/>
<path fill-rule="evenodd" clip-rule="evenodd" d="M264.77 10.881H286.532L275.651 32.6429L264.77 10.881ZM297.413 76.1667H319.175L308.294 97.9286L297.413 76.1667Z" fill="#694137"/>
<path fill-rule="evenodd" clip-rule="evenodd" d="M330.056 10.881H351.817L340.936 32.6429L330.056 10.881ZM362.698 76.1667H384.46L373.579 97.9286L362.698 76.1667Z" fill="#694137"/>
<path fill-rule="evenodd" clip-rule="evenodd" d="M395.341 10.881H417.103L406.222 32.6429L395.341 10.881ZM427.984 76.1667H449.746L438.865 97.9286L427.984 76.1667Z" fill="#694137"/>
<path fill-rule="evenodd" clip-rule="evenodd" d="M460.627 10.881H482.389L471.508 32.6429L460.627 10.881ZM493.27 76.1667H515.032L504.151 97.9286L493.27 76.1667Z" fill="#694137"/>
<path fill-rule="evenodd" clip-rule="evenodd" d="M525.913 10.881H547.675L536.794 32.6429L525.913 10.881ZM558.556 76.1667H580.317L569.437 97.9286L558.556 76.1667Z" fill="#694137"/>
<path fill-rule="evenodd" clip-rule="evenodd" d="M591.198 10.881H612.96L602.079 32.6429L591.198 10.881ZM623.841 76.1667H645.603L634.722 97.9286L623.841 76.1667Z" fill="#694137"/>
<path fill-rule="evenodd" clip-rule="evenodd" d="M656.484 10.881H678.246L667.365 32.6429L656.484 10.881ZM689.127 76.1667H710.889L700.008 97.9286L689.127 76.1667Z" fill="#694137"/>
<path fill-rule="evenodd" clip-rule="evenodd" d="M721.77 10.881H743.532L732.651 32.6429L721.77 10.881ZM754.413 76.1667H776.175L765.294 97.9286L754.413 76.1667Z" fill="#694137"/>
<path fill-rule="evenodd" clip-rule="evenodd" d="M787.056 10.881H808.818L797.937 32.6429L787.056 10.881ZM819.698 76.1667H841.46L830.579 97.9286L819.698 76.1667Z" fill="#694137"/>
<path fill-rule="evenodd" clip-rule="evenodd" d="M852.341 10.881H874.103L863.222 32.6429L852.341 10.881ZM884.984 76.1667H906.746L895.865 97.9286L884.984 76.1667Z" fill="#694137"/>
<path fill-rule="evenodd" clip-rule="evenodd" d="M3.62701 141.452H25.3889L14.508 163.214L3.62701 141.452ZM36.2699 206.738H58.0318L47.1508 228.5L36.2699 206.738Z" fill="#694137"/>
<path fill-rule="evenodd" clip-rule="evenodd" d="M68.9127 141.452H90.6746L79.7937 163.214L68.9127 141.452ZM101.556 206.738H123.317L112.437 228.5L101.556 206.738Z" fill="#694137"/>
<path fill-rule="evenodd" clip-rule="evenodd" d="M134.198 141.452H155.96L145.079 163.214L134.198 141.452ZM166.841 206.738H188.603L177.722 228.5L166.841 206.738Z" fill="#694137"/>
<path fill-rule="evenodd" clip-rule="evenodd" d="M199.484 141.452H221.246L210.365 163.214L199.484 141.452ZM232.127 206.738H253.889L243.008 228.5L232.127 206.738Z" fill="#694137"/>
<path fill-rule="evenodd" clip-rule="evenodd" d="M264.77 141.452H286.532L275.651 163.214L264.77 141.452ZM297.413 206.738H319.175L308.294 228.5L297.413 206.738Z" fill="#694137"/>
<path fill-rule="evenodd" clip-rule="evenodd" d="M330.056 141.452H351.817L340.936 163.214L330.056 141.452ZM362.698 206.738H384.46L373.579 228.5L362.698 206.738Z" fill="#694137"/>
<path fill-rule="evenodd" clip-rule="evenodd" d="M395.341 141.452H417.103L406.222 163.214L395.341 141.452ZM427.984 206.738H449.746L438.865 228.5L427.984 206.738Z" fill="#694137"/>
<path fill-rule="evenodd" clip-rule="evenodd" d="M460.627 141.452H482.389L471.508 163.214L460.627 141.452ZM493.27 206.738H515.032L504.151 228.5L493.27 206.738Z" fill="#694137"/>
<path fill-rule="evenodd" clip-rule="evenodd" d="M525.913 141.452H547.675L536.794 163.214L525.913 141.452ZM558.556 206.738H580.317L569.437 228.5L558.556 206.738Z" fill="#694137"/>
<path fill-rule="evenodd" clip-rule="evenodd" d="M591.198 141.452H612.96L602.079 163.214L591.198 141.452ZM623.841 206.738H645.603L634.722 228.5L623.841 206.738Z" fill="#694137"/>
<path fill-rule="evenodd" clip-rule="evenodd" d="M656.484 141.452H678.246L667.365 163.214L656.484 141.452ZM689.127 206.738H710.889L700.008 228.5L689.127 206.738Z" fill="#694137"/>
<path fill-rule="evenodd" clip-rule="evenodd" d="M721.77 141.452H743.532L732.651 163.214L721.77 141.452ZM754.413 206.738H776.175L765.294 228.5L754.413 206.738Z" fill="#694137"/>
<path fill-rule="evenodd" clip-rule="evenodd" d="M787.056 141.452H808.818L797.937 163.214L787.056 141.452ZM819.698 206.738H841.46L830.579 228.5L819.698 206.738Z" fill="#694137"/>
<path fill-rule="evenodd" clip-rule="evenodd" d="M852.341 141.452H874.103L863.222 163.214L852.341 141.452ZM884.984 206.738H906.746L895.865 228.5L884.984 206.738Z" fill="#694137"/>
<path fill-rule="evenodd" clip-rule="evenodd" d="M3.62701 272.024H25.3889L14.508 293.786L3.62701 272.024ZM36.2699 337.31H58.0318L47.1508 359.071L36.2699 337.31Z" fill="#694137"/>
<path fill-rule="evenodd" clip-rule="evenodd" d="M68.9127 272.024H90.6746L79.7937 293.786L68.9127 272.024ZM101.556 337.31H123.317L112.437 359.071L101.556 337.31Z" fill="#694137"/>
<path fill-rule="evenodd" clip-rule="evenodd" d="M134.198 272.024H155.96L145.079 293.786L134.198 272.024ZM166.841 337.31H188.603L177.722 359.071L166.841 337.31Z" fill="#694137"/>
<path fill-rule="evenodd" clip-rule="evenodd" d="M199.484 272.024H221.246L210.365 293.786L199.484 272.024ZM232.127 337.31H253.889L243.008 359.071L232.127 337.31Z" fill="#694137"/>
<path fill-rule="evenodd" clip-rule="evenodd" d="M264.77 272.024H286.532L275.651 293.786L264.77 272.024ZM297.413 337.31H319.175L308.294 359.071L297.413 337.31Z" fill="#694137"/>
<path fill-rule="evenodd" clip-rule="evenodd" d="M330.056 272.024H351.817L340.936 293.786L330.056 272.024ZM362.698 337.31H384.46L373.579 359.071L362.698 337.31Z" fill="#694137"/>
<path fill-rule="evenodd" clip-rule="evenodd" d="M395.341 272.024H417.103L406.222 293.786L395.341 272.024ZM427.984 337.31H449.746L438.865 359.071L427.984 337.31Z" fill="#694137"/>
<path fill-rule="evenodd" clip-rule="evenodd" d="M460.627 272.024H482.389L471.508 293.786L460.627 272.024ZM493.27 337.31H515.032L504.151 359.071L493.27 337.31Z" fill="#694137"/>
<path fill-rule="evenodd" clip-rule="evenodd" d="M525.913 272.024H547.675L536.794 293.786L525.913 272.024ZM558.556 337.31H580.317L569.437 359.071L558.556 337.31Z" fill="#694137"/>
<path fill-rule="evenodd" clip-rule="evenodd" d="M591.198 272.024H612.96L602.079 293.786L591.198 272.024ZM623.841 337.31H645.603L634.722 359.071L623.841 337.31Z" fill="#694137"/>
<path fill-rule="evenodd" clip-rule="evenodd" d="M656.484 272.024H678.246L667.365 293.786L656.484 272.024ZM689.127 337.31H710.889L700.008 359.071L689.127 337.31Z" fill="#694137"/>
<path fill-rule="evenodd" clip-rule="evenodd" d="M721.77 272.024H743.532L732.651 293.786L721.77 272.024ZM754.413 337.31H776.175L765.294 359.071L754.413 337.31Z" fill="#694137"/>
<path fill-rule="evenodd" clip-rule="evenodd" d="M787.056 272.024H808.818L797.937 293.786L787.056 272.024ZM819.698 337.31H841.46L830.579 359.071L819.698 337.31Z" fill="#694137"/>
<path fill-rule="evenodd" clip-rule="evenodd" d="M852.341 272.024H874.103L863.222 293.786L852.341 272.024ZM884.984 337.31H906.746L895.865 359.071L884.984 337.31Z" fill="#694137"/>
<path fill-rule="evenodd" clip-rule="evenodd" d="M3.62701 402.595H25.3889L14.508 424.357L3.62701 402.595ZM36.2699 467.881H58.0318L47.1508 489.643L36.2699 467.881Z" fill="#694137"/>
<path fill-rule="evenodd" clip-rule="evenodd" d="M68.9127 402.595H90.6746L79.7937 424.357L68.9127 402.595ZM101.556 467.881H123.317L112.437 489.643L101.556 467.881Z" fill="#694137"/>
<path fill-rule="evenodd" clip-rule="evenodd" d="M134.198 402.595H155.96L145.079 424.357L134.198 402.595ZM166.841 467.881H188.603L177.722 489.643L166.841 467.881Z" fill="#694137"/>
<path fill-rule="evenodd" clip-rule="evenodd" d="M199.484 402.595H221.246L210.365 424.357L199.484 402.595ZM232.127 467.881H253.889L243.008 489.643L232.127 467.881Z" fill="#694137"/>
<path fill-rule="evenodd" clip-rule="evenodd" d="M264.77 402.595H286.532L275.651 424.357L264.77 402.595ZM297.413 467.881H319.175L308.294 489.643L297.413 467.881Z" fill="#694137"/>
<path fill-rule="evenodd" clip-rule="evenodd" d="M330.056 402.595H351.817L340.936 424.357L330.056 402.595ZM362.698 467.881H384.46L373.579 489.643L362.698 467.881Z" fill="#694137"/>
<path fill-rule="evenodd" clip-rule="evenodd" d="M395.341 402.595H417.103L406.222 424.357L395.341 402.595ZM427.984 467.881H449.746L438.865 489.643L427.984 467.881Z" fill="#694137"/>
<path fill-rule="evenodd" clip-rule="evenodd" d="M460.627 402.595H482.389L471.508 424.357L460.627 402.595ZM493.27 467.881H515.032L504.151 489.643L493.27 467.881Z" fill="#694137"/>
<path fill-rule="evenodd" clip-rule="evenodd" d="M525.913 402.595H547.675L536.794 424.357L525.913 402.595ZM558.556 467.881H580.317L569.437 489.643L558.556 467.881Z" fill="#694137"/>
<path fill-rule="evenodd" clip-rule="evenodd" d="M591.198 402.595H612.96L602.079 424.357L591.198 402.595ZM623.841 467.881H645.603L634.722 489.643L623.841 467.881Z" fill="#694137"/>
<path fill-rule="evenodd" clip-rule="evenodd" d="M656.484 402.595H678.246L667.365 424.357L656.484 402.595ZM689.127 467.881H710.889L700.008 489.643L689.127 467.881Z" fill="#694137"/>
<path fill-rule="evenodd" clip-rule="evenodd" d="M721.77 402.595H743.532L732.651 424.357L721.77 402.595ZM754.413 467.881H776.175L765.294 489.643L754.413 467.881Z" fill="#694137"/>
<path fill-rule="evenodd" clip-rule="evenodd" d="M787.056 402.595H808.818L797.937 424.357L787.056 402.595ZM819.698 467.881H841.46L830.579 489.643L819.698 467.881Z" fill="#694137"/>
<path fill-rule="evenodd" clip-rule="evenodd" d="M852.341 402.595H874.103L863.222 424.357L852.341 402.595ZM884.984 467.881H906.746L895.865 489.643L884.984 467.881Z" fill="#694137"/>
<path fill-rule="evenodd" clip-rule="evenodd" d="M3.62701 533.167H25.3889L14.508 554.929L3.62701 533.167ZM36.2699 598.452H58.0318L47.1508 620.214L36.2699 598.452Z" fill="#694137"/>
<path fill-rule="evenodd" clip-rule="evenodd" d="M68.9127 533.167H90.6746L79.7937 554.929L68.9127 533.167ZM101.556 598.452H123.317L112.437 620.214L101.556 598.452Z" fill="#694137"/>
<path fill-rule="evenodd" clip-rule="evenodd" d="M134.198 533.167H155.96L145.079 554.929L134.198 533.167ZM166.841 598.452H188.603L177.722 620.214L166.841 598.452Z" fill="#694137"/>
<path fill-rule="evenodd" clip-rule="evenodd" d="M199.484 533.167H221.246L210.365 554.929L199.484 533.167ZM232.127 598.452H253.889L243.008 620.214L232.127 598.452Z" fill="#694137"/>
<path fill-rule="evenodd" clip-rule="evenodd" d="M264.77 533.167H286.532L275.651 554.929L264.77 533.167ZM297.413 598.452H319.175L308.294 620.214L297.413 598.452Z" fill="#694137"/>
<path fill-rule="evenodd" clip-rule="evenodd" d="M330.056 533.167H351.817L340.936 554.929L330.056 533.167ZM362.698 598.452H384.46L373.579 620.214L362.698 598.452Z" fill="#694137"/>
<path fill-rule="evenodd" clip-rule="evenodd" d="M395.341 533.167H417.103L406.222 554.929L395.341 533.167ZM427.984 598.452H449.746L438.865 620.214L427.984 598.452Z" fill="#694137"/>
<path fill-rule="evenodd" clip-rule="evenodd" d="M460.627 533.167H482.389L471.508 554.929L460.627 533.167ZM493.27 598.452H515.032L504.151 620.214L493.27 598.452Z" fill="#694137"/>
<path fill-rule="evenodd" clip-rule="evenodd" d="M525.913 533.167H547.675L536.794 554.929L525.913 533.167ZM558.556 598.452H580.317L569.437 620.214L558.556 598.452Z" fill="#694137"/>
<path fill-rule="evenodd" clip-rule="evenodd" d="M591.198 533.167H612.96L602.079 554.929L591.198 533.167ZM623.841 598.452H645.603L634.722 620.214L623.841 598.452Z" fill="#694137"/>
<path fill-rule="evenodd" clip-rule="evenodd" d="M656.484 533.167H678.246L667.365 554.929L656.484 533.167ZM689.127 598.452H710.889L700.008 620.214L689.127 598.452Z" fill="#694137"/>
<path fill-rule="evenodd" clip-rule="evenodd" d="M721.77 533.167H743.532L732.651 554.929L721.77 533.167ZM754.413 598.452H776.175L765.294 620.214L754.413 598.452Z" fill="#694137"/>
<path fill-rule="evenodd" clip-rule="evenodd" d="M787.056 533.167H808.818L797.937 554.929L787.056 533.167ZM819.698 598.452H841.46L830.579 620.214L819.698 598.452Z" fill="#694137"/>
<path fill-rule="evenodd" clip-rule="evenodd" d="M852.341 533.167H874.103L863.222 554.929L852.341 533.167ZM884.984 598.452H906.746L895.865 620.214L884.984 598.452Z" fill="#694137"/>
<path fill-rule="evenodd" clip-rule="evenodd" d="M3.62701 663.738H25.3889L14.508 685.5L3.62701 663.738ZM36.2699 729.024H58.0318L47.1508 750.786L36.2699 729.024Z" fill="#694137"/>
<path fill-rule="evenodd" clip-rule="evenodd" d="M68.9127 663.738H90.6746L79.7937 685.5L68.9127 663.738ZM101.556 729.024H123.317L112.437 750.786L101.556 729.024Z" fill="#694137"/>
<path fill-rule="evenodd" clip-rule="evenodd" d="M134.198 663.738H155.96L145.079 685.5L134.198 663.738ZM166.841 729.024H188.603L177.722 750.786L166.841 729.024Z" fill="#694137"/>
<path fill-rule="evenodd" clip-rule="evenodd" d="M199.484 663.738H221.246L210.365 685.5L199.484 663.738ZM232.127 729.024H253.889L243.008 750.786L232.127 729.024Z" fill="#694137"/>
<path fill-rule="evenodd" clip-rule="evenodd" d="M264.77 663.738H286.532L275.651 685.5L264.77 663.738ZM297.413 729.024H319.175L308.294 750.786L297.413 729.024Z" fill="#694137"/>
<path fill-rule="evenodd" clip-rule="evenodd" d="M330.056 663.738H351.817L340.936 685.5L330.056 663.738ZM362.698 729.024H384.46L373.579 750.786L362.698 729.024Z" fill="#694137"/>
<path fill-rule="evenodd" clip-rule="evenodd" d="M395.341 663.738H417.103L406.222 685.5L395.341 663.738ZM427.984 729.024H449.746L438.865 750.786L427.984 729.024Z" fill="#694137"/>
<path fill-rule="evenodd" clip-rule="evenodd" d="M460.627 663.738H482.389L471.508 685.5L460.627 663.738ZM493.27 729.024H515.032L504.151 750.786L493.27 729.024Z" fill="#694137"/>
<path fill-rule="evenodd" clip-rule="evenodd" d="M525.913 663.738H547.675L536.794 685.5L525.913 663.738ZM558.556 729.024H580.317L569.437 750.786L558.556 729.024Z" fill="#694137"/>
<path fill-rule="evenodd" clip-rule="evenodd" d="M591.198 663.738H612.96L602.079 685.5L591.198 663.738ZM623.841 729.024H645.603L634.722 750.786L623.841 729.024Z" fill="#694137"/>
<path fill-rule="evenodd" clip-rule="evenodd" d="M656.484 663.738H678.246L667.365 685.5L656.484 663.738ZM689.127 729.024H710.889L700.008 750.786L689.127 729.024Z" fill="#694137"/>
<path fill-rule="evenodd" clip-rule="evenodd" d="M721.77 663.738H743.532L732.651 685.5L721.77 663.738ZM754.413 729.024H776.175L765.294 750.786L754.413 729.024Z" fill="#694137"/>
<path fill-rule="evenodd" clip-rule="evenodd" d="M787.056 663.738H808.818L797.937 685.5L787.056 663.738ZM819.698 729.024H841.46L830.579 750.786L819.698 729.024Z" fill="#694137"/>
<path fill-rule="evenodd" clip-rule="evenodd" d="M852.341 663.738H874.103L863.222 685.5L852.341 663.738ZM884.984 729.024H906.746L895.865 750.786L884.984 729.024Z" fill="#694137"/>
<path fill-rule="evenodd" clip-rule="evenodd" d="M3.62701 794.31H25.3889L14.508 816.071L3.62701 794.31ZM36.2699 859.595H58.0318L47.1508 881.357L36.2699 859.595Z" fill="#694137"/>
<path fill-rule="evenodd" clip-rule="evenodd" d="M68.9127 794.31H90.6746L79.7937 816.071L68.9127 794.31ZM101.556 859.595H123.317L112.437 881.357L101.556 859.595Z" fill="#694137"/>
<path fill-rule="evenodd" clip-rule="evenodd" d="M134.198 794.31H155.96L145.079 816.071L134.198 794.31ZM166.841 859.595H188.603L177.722 881.357L166.841 859.595Z" fill="#694137"/>
<path fill-rule="evenodd" clip-rule="evenodd" d="M199.484 794.31H221.246L210.365 816.071L199.484 794.31ZM232.127 859.595H253.889L243.008 881.357L232.127 859.595Z" fill="#694137"/>
<path fill-rule="evenodd" clip-rule="evenodd" d="M264.77 794.31H286.532L275.651 816.071L264.77 794.31ZM297.413 859.595H319.175L308.294 881.357L297.413 859.595Z" fill="#694137"/>
<path fill-rule="evenodd" clip-rule="evenodd" d="M330.056 794.31H351.817L340.936 816.071L330.056 794.31ZM362.698 859.595H384.46L373.579 881.357L362.698 859.595Z" fill="#694137"/>
<path fill-rule="evenodd" clip-rule="evenodd" d="M395.341 794.31H417.103L406.222 816.071L395.341 794.31ZM427.984 859.595H449.746L438.865 881.357L427.984 859.595Z" fill="#694137"/>
<path fill-rule="evenodd" clip-rule="evenodd" d="M460.627 794.31H482.389L471.508 816.071L460.627 794.31ZM493.27 859.595H515.032L504.151 881.357L493.27 859.595Z" fill="#694137"/>
<path fill-rule="evenodd" clip-rule="evenodd" d="M525.913 794.31H547.675L536.794 816.071L525.913 794.31ZM558.556 859.595H580.317L569.437 881.357L558.556 859.595Z" fill="#694137"/>
<path fill-rule="evenodd" clip-rule="evenodd" d="M591.198 794.31H612.96L602.079 816.071L591.198 794.31ZM623.841 859.595H645.603L634.722 881.357L623.841 859.595Z" fill="#694137"/>
<path fill-rule="evenodd" clip-rule="evenodd" d="M656.484 794.31H678.246L667.365 816.071L656.484 794.31ZM689.127 859.595H710.889L700.008 881.357L689.127 859.595Z" fill="#694137"/>
<path fill-rule="evenodd" clip-rule="evenodd" d="M721.77 794.31H743.532L732.651 816.071L721.77 794.31ZM754.413 859.595H776.175L765.294 881.357L754.413 859.595Z" fill="#694137"/>
<path fill-rule="evenodd" clip-rule="evenodd" d="M787.056 794.31H808.818L797.937 816.071L787.056 794.31ZM819.698 859.595H841.46L830.579 881.357L819.698 859.595Z" fill="#694137"/>
<path fill-rule="evenodd" clip-rule="evenodd" d="M852.341 794.31H874.103L863.222 816.071L852.341 794.31ZM884.984 859.595H906.746L895.865 881.357L884.984 859.595Z" fill="#694137"/>
</svg>
