<svg width="116" height="92" viewBox="0 0 116 92" fill="none" xmlns="http://www.w3.org/2000/svg">
<path d="M17.7503 83.3751V89.125C17.7503 90.7134 19.0369 92 20.6253 92H60.875C62.4634 92 63.75 90.7134 63.75 89.125V27.5376C64.5693 27.1783 65.3528 26.756 66.0841 26.2583L91.6085 34.8167C93.1142 35.3216 94.744 34.5095 95.2489 33.0055L97.0763 27.5538C97.5812 26.048 96.7691 24.4183 95.2651 23.9134L72.1934 16.1779C72.2689 15.5813 72.3749 14.992 72.3749 14.3756C72.3749 6.43712 65.9385 0.000767879 58 0.000767879C52.6651 0.000767879 48.0634 2.94043 45.5819 7.25469L24.3915 0.149907C22.8858 -0.35501 21.256 0.45717 20.7511 1.96114L18.9237 7.41282C18.4188 8.91858 19.231 10.5483 20.7349 11.0533L44.4535 19.0062C45.7616 22.8245 48.5791 25.9313 52.2483 27.5359V80.5001H20.6253C19.0369 80.5001 17.7503 81.7866 17.7503 83.3751ZM0.500488 54.6253C0.500488 62.5638 10.7983 69.0002 23.5003 69.0002C36.2023 69.0002 46.5001 62.5638 46.5001 54.6253H46.4965C46.4965 51.8096 46.8703 53.3226 31.2142 22.0105C28.0374 15.6568 18.956 15.6694 15.7846 22.0105C0.263303 53.0567 0.504082 51.718 0.504082 54.6253H0.500488ZM10.5629 51.7503L23.5003 25.8756L36.4377 51.7503H10.5629ZM69.5035 77.6251H69.4999C69.4999 85.5636 79.7977 92 92.4997 92C105.202 92 115.5 85.5636 115.5 77.6251H115.496C115.496 74.8094 115.87 76.3224 100.214 45.0103C97.0368 38.6566 87.9555 38.6692 84.784 45.0103C69.2627 76.0565 69.5035 74.7178 69.5035 77.6251ZM79.5623 74.7501L92.4997 48.8754L105.437 74.7501H79.5623Z" fill="white"/>
</svg>
