<svg width="107" height="93" viewBox="0 0 107 93" fill="none" xmlns="http://www.w3.org/2000/svg">
<path d="M30.5069 36.6429C26.8721 36.6429 23.9355 39.5795 23.9355 43.2143C23.9355 46.8491 26.8721 49.7857 30.5069 49.7857C34.1418 49.7857 37.0784 46.8491 37.0784 43.2143C37.0784 39.5795 34.1418 36.6429 30.5069 36.6429ZM53.5069 36.6429C49.8721 36.6429 46.9355 39.5795 46.9355 43.2143C46.9355 46.8491 49.8721 49.7857 53.5069 49.7857C57.1418 49.7857 60.0784 46.8491 60.0784 43.2143C60.0784 39.5795 57.1418 36.6429 53.5069 36.6429ZM76.5069 36.6429C72.8721 36.6429 69.9355 39.5795 69.9355 43.2143C69.9355 46.8491 72.8721 49.7857 76.5069 49.7857C80.1418 49.7857 83.0784 46.8491 83.0784 43.2143C83.0784 39.5795 80.1418 36.6429 76.5069 36.6429ZM53.5069 0.5C24.4694 0.5 0.935504 19.6187 0.935504 43.2143C0.935504 52.9893 5.02211 61.9429 11.7989 69.1509C8.73908 77.242 2.373 84.1009 2.27033 84.183C0.914968 85.6205 0.545326 87.7152 1.32568 89.5223C2.10604 91.3295 3.89265 92.5 5.86408 92.5C18.4935 92.5 28.4534 87.2223 34.4293 82.992C40.3641 84.8607 46.7712 85.9286 53.5069 85.9286C82.5444 85.9286 106.078 66.8098 106.078 43.2143C106.078 19.6187 82.5444 0.5 53.5069 0.5ZM53.5069 76.0714C48.0239 76.0714 42.6025 75.2295 37.4069 73.5866L32.7453 72.108L28.7409 74.942C25.8043 77.0161 21.7793 79.3366 16.9328 80.8973C18.4319 78.4125 19.89 75.6196 21.0194 72.642L23.1962 66.8714L18.9659 62.3946C15.2489 58.4313 10.7926 51.8804 10.7926 43.2143C10.7926 25.1018 29.9525 10.3571 53.5069 10.3571C77.0614 10.3571 96.2212 25.1018 96.2212 43.2143C96.2212 61.3268 77.0614 76.0714 53.5069 76.0714Z" fill="white"/>
</svg>
