<svg width="94" height="65" viewBox="0 0 94 65" fill="none" xmlns="http://www.w3.org/2000/svg">
<path d="M47.0002 13.8333C45.2971 13.8609 43.6066 14.1416 41.9802 14.6667C42.7325 16.0389 43.133 17.5882 43.1436 19.1667C43.1436 20.3923 42.9108 21.606 42.4586 22.7384C42.0064 23.8708 41.3435 24.8997 40.5079 25.7663C39.6723 26.633 38.6803 27.3205 37.5885 27.7895C36.4967 28.2586 35.3265 28.5 34.1448 28.5C32.6229 28.489 31.1291 28.0736 29.8061 27.2933C28.7623 31.048 28.8839 35.0481 30.1538 38.7271C31.4237 42.406 33.7775 45.5773 36.8817 47.7917C39.9859 50.0062 43.6832 51.1515 47.4498 51.0654C51.2165 50.9793 54.8615 49.6663 57.8687 47.3122C60.8758 44.9581 63.0927 41.6824 64.2051 37.949C65.3175 34.2156 65.2692 30.2138 64.067 26.5104C62.8647 22.8071 60.5695 19.59 57.5065 17.3148C54.4434 15.0395 50.7678 13.8215 47.0002 13.8333ZM92.7207 30.0667C84.0063 12.4317 66.7542 0.5 47.0002 0.5C27.2462 0.5 9.9894 12.44 1.27983 30.0683C0.912229 30.8225 0.720703 31.6558 0.720703 32.5008C0.720703 33.3459 0.912229 34.1792 1.27983 34.9333C9.99422 52.5683 27.2462 64.5 47.0002 64.5C66.7542 64.5 84.0111 52.56 92.7207 34.9317C93.0883 34.1775 93.2798 33.3442 93.2798 32.4992C93.2798 31.6541 93.0883 30.8208 92.7207 30.0667ZM47.0002 56.5C31.1479 56.5 16.6148 47.3333 8.76652 32.5C16.6148 17.6667 31.1463 8.5 47.0002 8.5C62.8542 8.5 77.3857 17.6667 85.234 32.5C77.3873 47.3333 62.8542 56.5 47.0002 56.5Z" fill="black"/>
</svg>
