<svg width="101" height="61" viewBox="0 0 101 61" fill="none" xmlns="http://www.w3.org/2000/svg">
<path d="M68.2581 0H54.9587C53.7201 0 52.528 0.47639 51.6145 1.33389L36.3953 15.6256C36.3798 15.6415 36.3643 15.6732 36.3488 15.6891C33.7788 18.1663 33.8252 22.1204 36.0237 24.5817C37.99 26.789 42.1238 27.3765 44.7093 25.0105C44.7248 24.9946 44.7558 24.9946 44.7713 24.9787L57.1417 13.3548C58.1481 12.4179 59.7273 12.4814 60.6407 13.5136C61.5697 14.5458 61.4923 16.1496 60.4859 17.1024L56.445 20.8976L78.9874 39.6674C79.4364 40.0485 79.8389 40.4614 80.2105 40.8901V10.163L71.7571 1.49269C70.8436 0.539909 69.5741 0 68.2581 0ZM85.1803 10.1947V45.7493C85.1803 48.56 87.3943 50.8308 90.1347 50.8308H100.043V10.1947H85.1803ZM92.6119 45.7493C91.2495 45.7493 90.1347 44.606 90.1347 43.2085C90.1347 41.8111 91.2495 40.6678 92.6119 40.6678C93.9743 40.6678 95.0891 41.8111 95.0891 43.2085C95.0891 44.606 93.9743 45.7493 92.6119 45.7493ZM0.956055 50.8149H10.8648C13.6052 50.8149 15.8192 48.5441 15.8192 45.7334V10.1947H0.956055V50.8149ZM8.38761 40.6678C9.75006 40.6678 10.8648 41.8111 10.8648 43.2085C10.8648 44.606 9.75006 45.7493 8.38761 45.7493C7.02516 45.7493 5.91042 44.606 5.91042 43.2085C5.91042 41.7953 7.02516 40.6678 8.38761 40.6678ZM75.8754 43.6214L52.7602 24.3753L48.1155 28.7422C43.5172 33.0456 36.4727 32.6327 32.3699 28.0435C28.2051 23.3749 28.5302 16.1496 33.0511 11.8939L45.7157 0H32.7414C31.4254 0 30.1714 0.539909 29.2424 1.49269L20.7735 10.163V45.7175H23.6068L37.6184 58.723C41.8606 62.2641 48.1 61.5972 51.5526 57.2462L51.5835 57.2144L54.3549 59.6757C56.8166 61.7401 60.4549 61.3431 62.4522 58.8182L67.3137 52.6887L68.1497 53.3874C70.2708 55.15 73.3982 54.8325 75.1168 52.6411L76.5876 50.7831C78.3216 48.5917 77.9965 45.3999 75.8754 43.6214Z" fill="black"/>
</svg>
