<svg width="131" height="127" viewBox="0 0 131 127" fill="none" xmlns="http://www.w3.org/2000/svg">
<path fill-rule="evenodd" clip-rule="evenodd" d="M32.3923 1.01975C32.3923 1.98753 33.1182 4.16501 34.0859 5.97958C35.7795 9.12485 35.7795 9.24582 31.4246 10.6975C28.8842 11.4233 23.8033 14.0847 19.9322 16.3831C16.0612 18.6816 10.2545 21.5849 6.86731 22.6737L0.697754 24.7302L6.02051 27.3916C9.0448 28.7223 11.9481 29.932 12.7949 29.932C15.2144 29.932 15.5773 32.2304 13.7627 35.1338C11.4642 38.521 6.98828 51.344 6.98828 54.0053C7.10925 55.0941 8.31897 52.9166 9.8916 49.2874C14.9724 36.9483 20.0532 30.4159 28.7632 25.2141C34.8118 21.5849 30.4568 22.0688 24.0453 25.698C19.2064 28.4803 18.3596 28.6013 13.7627 27.2706C11.1028 26.4726 9.90504 26.1133 9.92828 25.8711C9.94731 25.6727 10.7857 25.553 12.311 25.3351C14.3676 25.0931 20.0532 23.2785 25.0131 21.222C30.9407 18.9236 37.4731 17.3509 43.2798 16.867C51.022 16.2622 51.7478 16.0202 48.1187 15.2944C43.1588 14.2057 33.3601 15.6573 26.8276 18.4397C13.8837 24.0044 13.2788 23.5205 24.8921 16.988C32.7552 12.5121 33.3601 12.3911 45.2153 12.3911C55.9818 12.3911 57.0706 12.1491 54.2882 10.8185C51.5059 9.60874 52.3527 9.48776 60.2158 9.97165C66.1434 10.3346 68.4419 10.0926 66.8693 9.36679C65.5386 8.76193 59.248 8.27805 52.8365 8.27805C45.3363 8.15707 40.6184 7.55222 39.1667 6.58444C37.2312 5.13278 39.0458 5.01181 51.3849 5.13278C64.0869 5.25375 66.5063 5.61667 71.7081 8.15707C75.0953 9.85068 78.9664 12.9959 80.4181 15.2944C85.015 22.1898 83.9263 23.1576 76.3051 18.8026C69.2887 15.0525 68.9258 15.2944 74.8534 19.7704L77.9987 22.0688L70.0145 21.9478C65.6595 21.8269 59.7319 21.101 56.8286 20.2542C52.2317 18.8026 51.3849 18.9236 48.3606 20.9801C46.546 22.3108 42.9169 24.0044 40.2555 24.8512C37.4731 25.577 33.4811 28.2384 31.1826 30.6578L26.9486 35.1338L31.7875 31.9885C34.4489 30.2949 38.199 28.4803 40.0135 27.9964C43.2798 27.2706 43.4008 27.3916 42.554 30.6578C42.191 32.5934 40.2555 37.0693 38.3199 40.6985C35.5376 45.9002 35.4166 46.747 37.2312 45.0534C40.1345 42.3921 40.3765 43.4808 37.7151 47.8358C36.3844 49.8923 37.5941 49.0455 40.7394 45.6583C43.7637 42.513 45.5782 41.1823 45.0944 42.513C44.3685 44.8115 44.4895 44.8115 46.667 42.8759C50.6591 39.2468 50.5381 40.5775 46.1831 47.7148C40.4974 57.2716 40.9813 58.1184 47.5138 49.7713C52.3527 43.6018 52.9575 43.2389 52.9575 45.9002C52.9575 47.5938 50.5381 53.7634 47.5138 59.691C44.4895 65.4977 42.0701 71.1833 42.0701 72.1511C42.191 73.2399 43.1588 72.1511 44.2476 69.8526C45.4573 67.5542 47.9977 62.9572 49.9332 59.57L53.5624 53.5215L54.5301 59.3281C55.256 63.8041 54.8931 66.9493 52.9575 73.1189C50.1752 82.3127 50.4171 84.6112 53.4414 76.6271C54.5301 73.7237 56.4657 70.4575 57.6754 69.3688C59.8529 67.4332 59.8529 67.5542 58.6432 72.635C57.9174 76.2641 57.9174 79.5304 58.7642 82.6756L59.9739 87.3935L60.0948 80.982C60.2158 77.4739 61.0626 72.635 62.0304 70.2156C63.603 66.4654 64.0869 66.1025 65.9015 67.5542C69.1677 70.3365 71.1033 76.6271 71.2242 85.216C71.3452 91.1437 71.5872 92.5953 72.313 90.4178C73.8856 85.458 73.6437 77.3529 71.7081 72.756C69.4097 67.1913 71.7081 67.6751 75.7002 73.6028C78.2406 77.2319 78.4825 78.8046 78.1196 87.3935L77.6357 97.0713L79.2084 91.6275C80.1761 88.6033 80.66 83.8854 80.4181 80.982C79.9342 76.869 80.1761 76.1432 81.3859 77.1109C82.3536 77.8368 83.3214 80.6191 83.8053 83.1595C84.4102 86.9097 83.8053 89.571 80.66 96.5874C78.6035 101.547 76.426 108.201 76.0631 111.588L75.2163 117.636L71.9501 112.072C67.7161 104.934 66.3854 100.942 65.0547 91.5066L63.9659 83.7644L64.3289 93.5631C64.8127 104.692 67.3531 111.709 73.5227 118.604C77.8777 123.685 77.3938 124.169 71.7081 120.661C65.1757 116.669 59.9739 107.717 57.7964 97.0713L56.8286 92.2324L56.7076 96.5874C56.4657 103.12 59.8529 111.467 65.0547 117.395C73.6437 127.193 80.66 127.677 96.2654 119.935C112.234 112.072 125.299 95.9825 129.17 79.2884C130.863 71.7882 130.621 55.8199 128.686 48.5616C124.815 34.166 113.08 18.4397 100.62 11.1814C89.0071 4.40695 82.9585 3.07626 59.0061 2.22946C46.667 1.74558 35.6586 0.898781 34.5698 0.414894C33.1182 -0.310936 32.3923 -0.0689925 32.3923 1.01975ZM88.8861 9.60874C104.129 15.1734 117.556 28.1174 123.242 42.9969C126.629 51.5859 127.839 70.8204 125.541 79.2884C121.79 92.8373 112.838 105.539 101.467 113.161C92.6362 119.088 82.3536 122.717 80.4181 120.782C77.8777 118.241 78.9664 107.959 82.7166 99.6117C84.6521 95.2567 86.4667 91.6275 86.8296 91.6275C87.1925 91.6275 88.4022 93.4421 89.7329 95.6196C91.3055 98.402 92.1523 99.0068 92.6362 97.6761C92.8782 96.7084 95.0557 92.7163 97.4751 88.9662C100.862 83.2805 101.588 81.224 100.983 77.7158C100.62 75.4173 100.741 73.4818 101.225 73.4818C103.04 73.4818 111.024 59.812 110.056 58.4813C109.639 57.9803 107.953 55.8075 105.835 53.0772C104.884 51.8523 103.847 50.5152 102.798 49.1665C99.2897 44.6905 96.5073 40.0936 96.5073 38.8839C96.5073 37.7951 94.4508 34.045 91.7894 30.5368C89.249 27.1496 86.7086 22.5527 86.2247 20.3752C85.7408 18.0768 83.0795 13.8427 80.4181 10.9394L75.4583 5.61667L79.0874 6.46347C81.0229 6.94736 85.4989 8.27805 88.8861 9.60874ZM57.3125 24.0044C57.6754 24.6092 57.3125 25.0931 56.4657 25.0931C54.6511 25.0931 50.5381 28.6013 50.5381 30.1739C50.5381 30.7788 50.901 31.0207 51.5059 30.7788C51.9897 30.4159 52.3527 31.9885 52.3527 34.287C52.3527 39.4887 51.3849 39.4887 48.1187 34.166C45.4573 29.811 45.8202 27.6335 49.9332 23.5205C51.7478 21.7059 55.9818 21.9478 57.3125 24.0044ZM82.5956 25.8189C85.015 26.5448 92.8782 36.1015 92.8782 38.4C92.8782 39.0049 92.2733 39.6097 91.5475 39.6097C90.8216 39.6097 91.3055 40.5775 92.5153 41.6662C95.0557 43.9647 103.887 54.7312 105.58 57.6345C107.032 60.1749 100.257 58.2394 96.9912 55.2151C92.5153 50.9811 92.7572 52.7956 97.717 59.57C100.378 63.1992 102.556 66.7074 102.556 67.3122C102.556 69.4897 97.959 71.0624 93.8459 70.3365C87.5554 69.1268 85.3779 67.5542 86.2247 64.8928C87.0715 62.3524 85.015 61.6266 84.0472 64.046C83.6843 64.8928 83.3214 64.4089 83.3214 62.9572C83.2004 61.5056 84.1682 59.691 85.3779 58.9652C87.1925 57.7555 87.1925 57.6345 85.015 58.1184C83.6843 58.4813 82.1117 58.8442 81.3859 58.9652C80.781 59.2071 77.5148 58.6023 74.2485 57.7555L68.4419 56.1828L69.0468 50.1343C69.5306 44.8115 69.4097 44.3276 67.958 46.2632C67.1112 47.4729 66.1434 49.0455 65.9015 49.7713C65.1757 51.8279 61.3046 48.0777 59.369 43.3598C57.1915 38.1581 58.2803 33.0772 62.3933 29.811C64.2079 28.2384 64.6918 27.5125 63.603 27.8755C62.3933 28.3593 61.4255 28.1174 61.4255 27.5125C61.4255 26.9077 62.3933 26.1819 63.603 25.9399C66.6273 25.0931 79.8132 24.9721 82.5956 25.8189ZM64.5708 55.9409C67.7161 59.3281 71.1033 61.7475 73.5227 62.1104C77.0309 62.8363 79.5713 65.4977 78.1196 66.9493C77.7567 67.1913 75.2163 66.5864 72.313 65.6186C69.5306 64.6509 65.5386 63.8041 63.603 63.8041C60.3368 63.8041 59.1271 62.5943 58.5222 58.4813C58.4012 57.5135 57.9174 56.1828 57.4335 55.8199C56.1028 54.3683 56.4657 50.4972 58.0383 50.4972C58.7642 50.4972 61.6675 52.9166 64.5708 55.9409ZM82.8375 70.6994C84.6521 71.9092 87.4344 72.8769 89.128 72.8769C91.3055 72.8769 92.3943 73.7237 92.9991 75.9012L93.0957 76.2188C93.8461 78.689 93.8507 78.7041 93.9669 76.2641C94.2089 71.7882 97.717 74.3286 97.717 78.8046C97.717 83.1595 91.6684 93.3212 90.0958 91.7485C89.6119 91.2646 89.0071 87.9984 88.8861 84.6112C88.7651 81.345 88.1603 78.9255 87.5554 79.2884C86.9506 79.6514 86.7086 79.0465 87.1925 77.9577C87.6764 76.6271 87.4344 76.2641 86.3457 76.6271C85.4989 76.99 83.3214 75.2964 81.5068 72.8769C77.8777 68.159 78.1196 67.6751 82.8375 70.6994ZM73.5227 32.8353C73.5227 33.1982 75.4583 34.287 77.7567 35.2547C83.0795 37.5532 83.2004 39.3678 78.1196 38.6419L74.1276 38.1581L77.7567 40.6985C79.8132 42.1501 81.8698 43.2389 82.4746 43.2389C83.2004 43.2389 85.015 44.4486 86.5876 45.9002C88.2812 47.4729 89.37 48.0777 89.1281 47.4729C88.7651 46.7471 87.9183 44.9325 87.1925 43.2389C86.4667 41.5453 85.4989 39.2468 85.136 38.0371C84.7731 36.9483 83.2004 35.4967 81.7488 34.8918C76.3051 32.9563 73.5227 32.2304 73.5227 32.8353ZM9.16577 62.4734C10.8594 52.6746 15.2144 42.3921 20.4161 35.8596C22.4727 33.3192 24.4082 31.1417 24.6501 31.1417C25.376 31.1417 24.4082 32.8353 20.0532 38.8839C16.3031 44.0857 10.6174 60.7798 10.7384 65.9815C10.7384 68.28 11.3433 67.1913 12.9159 62.3524C15.2144 55.336 21.2629 44.6905 24.6501 41.9082C25.7389 41.0614 24.7711 43.1179 22.7146 46.3841C18.3596 53.5215 13.1578 68.0381 12.1901 76.1432C11.2223 84.2483 12.553 83.4015 14.2466 74.9334C16.0612 66.1025 23.8033 50.1342 29.489 43.8437L33.844 39.0048L31.3036 43.2389C20.6581 60.5378 16.4241 73.4818 16.1821 89.0871L16.0612 99.1278L13.2788 92.9582C9.0448 83.5224 7.47216 72.2721 9.16577 62.4734ZM22.7146 66.4654C16.9079 79.7723 18.4806 100.942 25.9808 109.894C29.1261 113.523 39.0458 120.661 40.9813 120.661C41.5862 120.661 40.4974 117.515 38.6829 113.644C35.6586 107.233 35.4166 105.539 35.4166 90.7807C35.4166 80.982 35.0537 75.5383 34.3279 76.748C32.5133 80.0143 31.9084 99.4907 33.4811 105.66C35.4166 113.281 34.2069 113.886 31.0616 106.749C28.7632 101.547 28.5212 99.3697 29.1261 86.9096C29.368 78.4416 30.4568 70.8204 31.5455 67.6751C32.6343 64.7718 32.9972 62.8363 32.3923 63.1992C31.7875 63.5621 29.9729 67.7961 28.5212 72.635C25.7389 81.7079 25.0131 93.5631 26.7067 101.668C28.1583 108.201 25.7389 106.386 24.0453 99.6117C22.1097 91.9905 22.3517 73.7237 24.5292 66.8283C26.8276 58.8442 26.1018 58.7232 22.7146 66.4654ZM47.2719 111.83C43.5217 104.451 42.191 91.5066 44.3685 83.4015C45.2153 80.6191 45.9412 78.3207 46.0621 78.3207C46.3041 78.3207 46.1831 83.6434 45.9412 90.1759C45.4573 100.458 45.8202 102.878 48.1187 108.322C49.5703 111.83 52.9575 116.548 55.6189 118.967C61.4255 124.169 62.9982 123.685 58.0383 118.241C54.1672 114.007 52.1107 108.443 51.1429 99.3697C50.8679 96.7842 50.7179 95.3994 50.8409 95.3747C50.9884 95.3451 51.5283 97.2708 52.7156 101.426C55.377 111.225 59.8529 118.241 66.5063 123.08L71.4662 126.709H66.1434C57.7964 126.588 50.1752 124.411 46.667 121.024C40.6184 115.217 36.1425 98.6439 37.957 88.8452C38.9248 84.2483 39.0458 84.8531 39.7716 94.6518C40.2555 102.999 41.2233 106.991 43.6427 111.709C46.425 117.274 52.9575 123.564 52.9575 120.782C52.9575 120.177 52.3527 119.209 51.7478 118.846C51.022 118.362 49.0864 115.217 47.2719 111.83Z" fill="white"/>
</svg>
