<svg width="91" height="91" viewBox="0 0 91 91" fill="none" xmlns="http://www.w3.org/2000/svg">
<path d="M45.5 0C20.3839 0 0.0244141 20.3595 0.0244141 45.4756C0.0244141 70.5917 20.3839 90.9512 45.5 90.9512C70.6161 90.9512 90.9756 70.5917 90.9756 45.4756C90.9756 20.3595 70.6161 0 45.5 0ZM45.5 79.2155C26.8532 79.2155 11.76 64.1261 11.76 45.4756C11.76 26.8288 26.8495 11.7356 45.5 11.7356C64.1468 11.7356 79.24 26.8251 79.24 45.4756C79.24 64.1224 64.1505 79.2155 45.5 79.2155ZM45.5 22.0043C32.5376 22.0043 22.0287 32.5132 22.0287 45.4756C22.0287 58.438 32.5376 68.9469 45.5 68.9469C58.4624 68.9469 68.9713 58.438 68.9713 45.4756C68.9713 32.5132 58.4624 22.0043 45.5 22.0043ZM45.5 57.2112C39.0289 57.2112 33.7644 51.9467 33.7644 45.4756C33.7644 39.0045 39.0289 33.7399 45.5 33.7399C51.9711 33.7399 57.2356 39.0045 57.2356 45.4756C57.2356 51.9467 51.9711 57.2112 45.5 57.2112Z" fill="black"/>
</svg>
